<svg xmlns="http://www.w3.org/2000/svg" xmlns:xlink="http://www.w3.org/1999/xlink" width="331.661" height="40.52" viewBox="0 0 331.661 40.52">
  <defs>
    <clipPath id="clip-path">
      <path id="Path_5480" data-name="Path 5480" d="M0,0H80.517V38.4H0Z" transform="translate(0 0)" fill="none" stroke="#488dfb" stroke-width="3"/>
    </clipPath>
  </defs>
  <g id="Group_3" data-name="Group 3" transform="translate(-3.7 -10.342)">
    <path id="Path_5481" data-name="Path 5481" d="M2.94-25.333H8.232v3.528h.147A14.344,14.344,0,0,1,9.751-23.52a7.486,7.486,0,0,1,1.641-1.323,8.3,8.3,0,0,1,2.083-.857,10.34,10.34,0,0,1,2.695-.319,9.177,9.177,0,0,1,4.287,1.029,5.819,5.819,0,0,1,2.818,3.185,11.276,11.276,0,0,1,3.283-3.087,8.853,8.853,0,0,1,4.655-1.127,9.151,9.151,0,0,1,6.248,1.96q2.229,1.96,2.229,6.566V0H34.1V-14.8q0-1.519-.1-2.769a5.653,5.653,0,0,0-.563-2.156,3.2,3.2,0,0,0-1.4-1.4,5.521,5.521,0,0,0-2.548-.49,4.731,4.731,0,0,0-4.116,1.764,8.434,8.434,0,0,0-1.274,5V0H18.522V-16.268a6.9,6.9,0,0,0-.955-3.994q-.955-1.347-3.5-1.347a5.128,5.128,0,0,0-2.082.441,5.19,5.19,0,0,0-1.764,1.274,6.376,6.376,0,0,0-1.225,2.058,7.824,7.824,0,0,0-.465,2.793V0H2.94ZM62.965-14.9a9.008,9.008,0,0,0-.563-2.548,6.789,6.789,0,0,0-1.274-2.132,6.309,6.309,0,0,0-1.96-1.47,5.774,5.774,0,0,0-2.573-.564,6.712,6.712,0,0,0-2.671.515,6.107,6.107,0,0,0-2.058,1.421,7.028,7.028,0,0,0-1.372,2.132,7.436,7.436,0,0,0-.563,2.646ZM49.931-11.221a9.729,9.729,0,0,0,.417,2.842,7,7,0,0,0,1.25,2.4A6.022,6.022,0,0,0,53.7-4.337a6.952,6.952,0,0,0,3.038.613,6.71,6.71,0,0,0,3.944-1.053,6.228,6.228,0,0,0,2.229-3.161h5.292a10.533,10.533,0,0,1-1.519,3.675,10.569,10.569,0,0,1-2.6,2.719A11.209,11.209,0,0,1,60.687.122a13.709,13.709,0,0,1-3.944.564,13.413,13.413,0,0,1-5.292-.98,10.94,10.94,0,0,1-3.9-2.744,11.644,11.644,0,0,1-2.4-4.214,17.119,17.119,0,0,1-.808-5.39,15.248,15.248,0,0,1,.857-5.121,13.108,13.108,0,0,1,2.45-4.263A11.717,11.717,0,0,1,51.5-24.941a11.666,11.666,0,0,1,5.1-1.078,11.353,11.353,0,0,1,5.366,1.25A11.774,11.774,0,0,1,65.9-21.462a13.392,13.392,0,0,1,2.279,4.728,14.494,14.494,0,0,1,.368,5.513ZM70.266-25.333H74.48v-7.6h5.586v7.6h5.047v4.165H80.066V-7.644a13.488,13.488,0,0,0,.074,1.519,2.622,2.622,0,0,0,.343,1.078,1.64,1.64,0,0,0,.809.661,3.978,3.978,0,0,0,1.47.22q.588,0,1.176-.024a5.841,5.841,0,0,0,1.176-.172V-.049q-.931.1-1.813.2a16.411,16.411,0,0,1-1.813.1,12.366,12.366,0,0,1-3.552-.417A4.742,4.742,0,0,1,75.827-1.4,4.227,4.227,0,0,1,74.8-3.43a15.3,15.3,0,0,1-.318-2.793V-21.168H70.266ZM106.526-14.9a9.008,9.008,0,0,0-.563-2.548,6.789,6.789,0,0,0-1.274-2.132,6.309,6.309,0,0,0-1.96-1.47,5.774,5.774,0,0,0-2.572-.564,6.712,6.712,0,0,0-2.671.515,6.107,6.107,0,0,0-2.058,1.421,7.028,7.028,0,0,0-1.372,2.132,7.436,7.436,0,0,0-.563,2.646ZM93.492-11.221a9.73,9.73,0,0,0,.416,2.842,7,7,0,0,0,1.25,2.4,6.022,6.022,0,0,0,2.107,1.641,6.952,6.952,0,0,0,3.038.613,6.71,6.71,0,0,0,3.944-1.053,6.228,6.228,0,0,0,2.23-3.161h5.292a10.533,10.533,0,0,1-1.519,3.675,10.569,10.569,0,0,1-2.6,2.719A11.209,11.209,0,0,1,104.247.122,13.709,13.709,0,0,1,100.3.686a13.413,13.413,0,0,1-5.292-.98,10.94,10.94,0,0,1-3.9-2.744,11.644,11.644,0,0,1-2.4-4.214,17.119,17.119,0,0,1-.809-5.39,15.248,15.248,0,0,1,.858-5.121,13.108,13.108,0,0,1,2.45-4.263,11.717,11.717,0,0,1,3.846-2.916,11.666,11.666,0,0,1,5.1-1.078,11.353,11.353,0,0,1,5.365,1.25,11.774,11.774,0,0,1,3.945,3.308,13.392,13.392,0,0,1,2.278,4.728,14.494,14.494,0,0,1,.368,5.513Zm22.883-14.112h5.243v4.9h.1a5.654,5.654,0,0,1,.955-2.009,9.317,9.317,0,0,1,1.715-1.789,8.666,8.666,0,0,1,2.229-1.3,6.674,6.674,0,0,1,2.5-.49,12.119,12.119,0,0,1,1.348.049q.368.049.76.1v5.39q-.588-.1-1.2-.171a10.072,10.072,0,0,0-1.2-.074,6.42,6.42,0,0,0-2.671.564,6.133,6.133,0,0,0-2.18,1.666,8.165,8.165,0,0,0-1.47,2.719,11.769,11.769,0,0,0-.539,3.724V0h-5.586Z" transform="translate(204.139 48)" fill="#488dfb"/>
    <path id="Path_5479" data-name="Path 5479" d="M3.7-35.7h8.8L22.35-7.75h.1l9.6-27.95h8.7V0H34.8V-27.55h-.1L24.8,0H19.65L9.75-27.55h-.1V0H3.7ZM69.1-5.75a3.025,3.025,0,0,0,.275,1.5,1.159,1.159,0,0,0,1.075.45h.6a3.736,3.736,0,0,0,.8-.1V.05q-.3.1-.775.225T70.1.5q-.5.1-1,.15T68.25.7a5.5,5.5,0,0,1-2.9-.7,3.486,3.486,0,0,1-1.5-2.45,10.081,10.081,0,0,1-4.175,2.4A16.441,16.441,0,0,1,54.9.7,11.709,11.709,0,0,1,51.55.225a8.791,8.791,0,0,1-2.825-1.4,6.709,6.709,0,0,1-1.95-2.35A7.24,7.24,0,0,1,46.05-6.85a7.679,7.679,0,0,1,.875-3.9,6.482,6.482,0,0,1,2.3-2.35,10.387,10.387,0,0,1,3.2-1.225Q54.2-14.7,56-14.9a29.249,29.249,0,0,1,2.95-.425,13.843,13.843,0,0,0,2.475-.425,3.79,3.79,0,0,0,1.7-.925,2.547,2.547,0,0,0,.625-1.875,2.92,2.92,0,0,0-.525-1.8,3.523,3.523,0,0,0-1.3-1.075,5.616,5.616,0,0,0-1.725-.5,13.824,13.824,0,0,0-1.8-.125,7.16,7.16,0,0,0-3.95,1,3.9,3.9,0,0,0-1.75,3.1H47a8.58,8.58,0,0,1,1.2-4.15,8.29,8.29,0,0,1,2.675-2.65,10.944,10.944,0,0,1,3.675-1.4,21.881,21.881,0,0,1,4.2-.4,17.694,17.694,0,0,1,3.75.4,10.652,10.652,0,0,1,3.325,1.3A7.2,7.2,0,0,1,68.2-22.525a6.379,6.379,0,0,1,.9,3.475Zm-5.7-7.2a6.919,6.919,0,0,1-3.2,1.025q-1.9.175-3.8.525a12.184,12.184,0,0,0-1.75.425,5.271,5.271,0,0,0-1.5.75,3.292,3.292,0,0,0-1.025,1.25A4.274,4.274,0,0,0,51.75-7.1a2.392,2.392,0,0,0,.55,1.6,4,4,0,0,0,1.325,1.025,6.135,6.135,0,0,0,1.7.525A10.553,10.553,0,0,0,57-3.8a9.283,9.283,0,0,0,2.05-.25,6.818,6.818,0,0,0,2.075-.85A5.463,5.463,0,0,0,62.75-6.425,3.858,3.858,0,0,0,63.4-8.7ZM92.7-17.2a5.347,5.347,0,0,0-1.925-3.625A6.281,6.281,0,0,0,86.8-22.05a8.2,8.2,0,0,0-2.35.375,5.576,5.576,0,0,0-2.3,1.4,7.848,7.848,0,0,0-1.75,2.85,13.568,13.568,0,0,0-.7,4.775,13.981,13.981,0,0,0,.375,3.2,8.748,8.748,0,0,0,1.2,2.85A6.5,6.5,0,0,0,83.4-4.575a6.046,6.046,0,0,0,3.15.775,5.735,5.735,0,0,0,4.125-1.55A7.2,7.2,0,0,0,92.7-9.7h5.7a12.521,12.521,0,0,1-3.825,7.725A11.67,11.67,0,0,1,86.55.7,13.215,13.215,0,0,1,81.175-.325a11.393,11.393,0,0,1-3.925-2.8A11.891,11.891,0,0,1,74.825-7.35,16.508,16.508,0,0,1,74-12.65a18.108,18.108,0,0,1,.8-5.45,12.484,12.484,0,0,1,2.4-4.425,11.23,11.23,0,0,1,3.975-2.95A13.416,13.416,0,0,1,86.75-26.55a15.579,15.579,0,0,1,4.275.575,11.26,11.26,0,0,1,3.6,1.725,9.182,9.182,0,0,1,2.575,2.9,9.93,9.93,0,0,1,1.2,4.15Zm10.35-8.65h5.35v5h.1a5.77,5.77,0,0,1,.975-2.05,9.507,9.507,0,0,1,1.75-1.825A8.843,8.843,0,0,1,113.5-26.05a6.811,6.811,0,0,1,2.55-.5,12.366,12.366,0,0,1,1.375.05q.375.05.775.1v5.5q-.6-.1-1.225-.175a10.278,10.278,0,0,0-1.225-.075,6.551,6.551,0,0,0-2.725.575,6.258,6.258,0,0,0-2.225,1.7,8.331,8.331,0,0,0-1.5,2.775,12.01,12.01,0,0,0-.55,3.8V0h-5.7Z" transform="translate(0 49)" fill="#488dfb"/>
    <g id="Mask_Group_3" data-name="Mask Group 3" transform="translate(199.319 48.742) rotate(180)" clip-path="url(#clip-path)">
      <g id="Path_2" data-name="Path 2" transform="translate(2.477 -37.162)" fill="none">
        <path d="M36.542,0A36.542,36.542,0,1,1,0,36.542,36.542,36.542,0,0,1,36.542,0Z" stroke="none"/>
        <path d="M 36.54236602783203 3 C 32.01285934448242 3 27.62042617797852 3.886436462402344 23.48708343505859 5.634696960449219 C 19.49324798583984 7.323951721191406 15.90577697753906 9.742897033691406 12.8243293762207 12.8243293762207 C 9.742897033691406 15.90577697753906 7.323951721191406 19.49324798583984 5.634696960449219 23.48708343505859 C 3.886436462402344 27.62042617797852 3 32.01285934448242 3 36.54236602783203 C 3 41.07187271118164 3.886436462402344 45.46430969238281 5.634696960449219 49.59764862060547 C 7.323951721191406 53.59148406982422 9.742897033691406 57.178955078125 12.8243293762207 60.26040267944336 C 15.90577697753906 63.34183502197266 19.49324798583984 65.76078033447266 23.48708343505859 67.45003509521484 C 27.62042617797852 69.19829559326172 32.01285934448242 70.08473205566406 36.54236602783203 70.08473205566406 C 41.07187271118164 70.08473205566406 45.46430969238281 69.19829559326172 49.59764862060547 67.45003509521484 C 53.59148406982422 65.76078033447266 57.178955078125 63.34183502197266 60.26040267944336 60.26040267944336 C 63.34183502197266 57.178955078125 65.76078033447266 53.59148406982422 67.45003509521484 49.59764862060547 C 69.19829559326172 45.46430969238281 70.08473205566406 41.07187271118164 70.08473205566406 36.54236602783203 C 70.08473205566406 32.01285934448242 69.19829559326172 27.62042617797852 67.45003509521484 23.48708343505859 C 65.76078033447266 19.49324798583984 63.34183502197266 15.90577697753906 60.26040267944336 12.8243293762207 C 57.178955078125 9.742897033691406 53.59148406982422 7.323951721191406 49.59764862060547 5.634696960449219 C 45.46430969238281 3.886436462402344 41.07187271118164 3 36.54236602783203 3 M 36.54236602783203 0 C 56.72415161132812 0 73.08473205566406 16.36057662963867 73.08473205566406 36.54236602783203 C 73.08473205566406 56.72415161132812 56.72415161132812 73.08473205566406 36.54236602783203 73.08473205566406 C 16.36057662963867 73.08473205566406 0 56.72415161132812 0 36.54236602783203 C 0 16.36057662963867 16.36057662963867 0 36.54236602783203 0 Z" stroke="none" fill="#488dfb"/>
      </g>
    </g>
    <path id="Path_3" data-name="Path 3" d="M0,20.086,15.922,1.444" transform="translate(159.061 29.275)" fill="none" stroke="#488dfb" stroke-linecap="round" stroke-width="3"/>
  </g>
</svg>
