<svg xmlns="http://www.w3.org/2000/svg" xmlns:xlink="http://www.w3.org/1999/xlink" width="102.898" height="52.366" viewBox="0 0 102.898 52.366">
  <defs>
    <clipPath id="clip-path">
      <path id="Path_5480" data-name="Path 5480" d="M0,0H102.9V49.074H0Z" transform="translate(0 0)" fill="none" stroke="#f9f9fa" stroke-width="3"/>
    </clipPath>
  </defs>
  <g id="Group_2305" data-name="Group 2305" transform="translate(-118.802 -10.342)">
    <g id="Mask_Group_3" data-name="Mask Group 3" transform="translate(221.7 59.416) rotate(180)" clip-path="url(#clip-path)">
      <g id="Path_2" data-name="Path 2" transform="translate(3.166 -47.491)" fill="none">
        <path d="M46.7,0A46.7,46.7,0,1,1,0,46.7,46.7,46.7,0,0,1,46.7,0Z" stroke="none"/>
        <path d="M 46.69984436035156 4.999992370605469 C 41.06819534301758 4.999992370605469 35.60766220092773 6.101844787597656 30.46990966796875 8.274925231933594 C 25.50492858886719 10.37494659423828 21.04484558105469 13.38234710693359 17.21359252929688 17.21359252929688 C 13.38234710693359 21.04484558105469 10.37494659423828 25.50492858886719 8.274925231933594 30.46990966796875 C 6.101844787597656 35.60766220092773 4.999992370605469 41.06819534301758 4.999992370605469 46.69984436035156 C 4.999992370605469 52.33149337768555 6.101844787597656 57.79202651977539 8.274925231933594 62.92977905273438 C 10.37494659423828 67.89476013183594 13.38234710693359 72.35484313964844 17.21359252929688 76.18609619140625 C 21.04484558105469 80.01734161376953 25.50492858886719 83.02474212646484 30.46990966796875 85.12476348876953 C 35.60766220092773 87.29784393310547 41.06819534301758 88.39969635009766 46.69984436035156 88.39969635009766 C 52.33149337768555 88.39969635009766 57.79202651977539 87.29784393310547 62.92977905273438 85.12476348876953 C 67.89476013183594 83.02474212646484 72.35484313964844 80.01734161376953 76.18609619140625 76.18609619140625 C 80.01734161376953 72.35484313964844 83.02474212646484 67.89476013183594 85.12476348876953 62.92977905273438 C 87.29784393310547 57.79202651977539 88.39969635009766 52.33149337768555 88.39969635009766 46.69984436035156 C 88.39969635009766 41.06819534301758 87.29784393310547 35.60766220092773 85.12476348876953 30.46990966796875 C 83.02474212646484 25.50492858886719 80.01734161376953 21.04484558105469 76.18609619140625 17.21359252929688 C 72.35484313964844 13.38234710693359 67.89476013183594 10.37494659423828 62.92977905273438 8.274925231933594 C 57.79202651977539 6.101844787597656 52.33149337768555 4.999992370605469 46.69984436035156 4.999992370605469 M 46.69984436035156 -7.62939453125e-06 C 72.49146270751953 -7.62939453125e-06 93.39969635009766 20.90822601318359 93.39969635009766 46.69984436035156 C 93.39969635009766 72.49146270751953 72.49146270751953 93.39969635009766 46.69984436035156 93.39969635009766 C 20.90822601318359 93.39969635009766 -7.62939453125e-06 72.49146270751953 -7.62939453125e-06 46.69984436035156 C -7.62939453125e-06 20.90822601318359 20.90822601318359 -7.62939453125e-06 46.69984436035156 -7.62939453125e-06 Z" stroke="none" fill="#463f3f"/>
      </g>
    </g>
    <path id="Path_3" data-name="Path 3" d="M0,25.268,20.347,1.444" transform="translate(170.251 34.94)" fill="none" stroke="#463f3f" stroke-linecap="round" stroke-width="5"/>
  </g>
</svg>
