<svg xmlns="http://www.w3.org/2000/svg" xmlns:xlink="http://www.w3.org/1999/xlink" width="200.12" height="42.092" viewBox="0 0 200.12 42.092">
  <defs>
    <clipPath id="clip-path">
      <path id="Path_5476" data-name="Path 5476" d="M0,0H48.12V22.949H0Z" transform="translate(0)" fill="none" stroke="#fff" stroke-width="3"/>
    </clipPath>
  </defs>
  <g id="Group_2291" data-name="Group 2291" transform="translate(-102.22 -68.18)">
    <g id="Group_1" data-name="Group 1" transform="translate(-16 15)" opacity="0.7">
      <path id="Path_5477" data-name="Path 5477" d="M1.8-15.51H5.04v2.16h.09a8.782,8.782,0,0,1,.84-1.05,4.583,4.583,0,0,1,1-.81,5.083,5.083,0,0,1,1.275-.525A6.331,6.331,0,0,1,9.9-15.93a5.619,5.619,0,0,1,2.625.63,3.563,3.563,0,0,1,1.725,1.95,6.9,6.9,0,0,1,2.01-1.89,5.42,5.42,0,0,1,2.85-.69,5.6,5.6,0,0,1,3.825,1.2q1.365,1.2,1.365,4.02V0H20.88V-9.06q0-.93-.06-1.7a3.461,3.461,0,0,0-.345-1.32,1.962,1.962,0,0,0-.855-.855,3.38,3.38,0,0,0-1.56-.3,2.9,2.9,0,0,0-2.52,1.08,5.164,5.164,0,0,0-.78,3.06V0H11.34V-9.96a4.221,4.221,0,0,0-.585-2.445A2.461,2.461,0,0,0,8.61-13.23a3.14,3.14,0,0,0-1.275.27,3.178,3.178,0,0,0-1.08.78,3.9,3.9,0,0,0-.75,1.26A4.79,4.79,0,0,0,5.22-9.21V0H1.8ZM38.55-9.12a5.515,5.515,0,0,0-.345-1.56,4.157,4.157,0,0,0-.78-1.305,3.863,3.863,0,0,0-1.2-.9,3.535,3.535,0,0,0-1.575-.345,4.11,4.11,0,0,0-1.635.315,3.739,3.739,0,0,0-1.26.87,4.3,4.3,0,0,0-.84,1.3,4.553,4.553,0,0,0-.345,1.62ZM30.57-6.87a5.957,5.957,0,0,0,.255,1.74,4.288,4.288,0,0,0,.765,1.47,3.687,3.687,0,0,0,1.29,1.005,4.256,4.256,0,0,0,1.86.375,4.108,4.108,0,0,0,2.415-.645A3.813,3.813,0,0,0,38.52-4.86h3.24a6.449,6.449,0,0,1-.93,2.25A6.471,6.471,0,0,1,39.24-.945,6.863,6.863,0,0,1,37.155.075,8.393,8.393,0,0,1,34.74.42a8.212,8.212,0,0,1-3.24-.6,6.7,6.7,0,0,1-2.385-1.68,7.129,7.129,0,0,1-1.47-2.58,10.481,10.481,0,0,1-.5-3.3,9.336,9.336,0,0,1,.525-3.135,8.025,8.025,0,0,1,1.5-2.61A7.173,7.173,0,0,1,31.53-15.27a7.143,7.143,0,0,1,3.12-.66,6.951,6.951,0,0,1,3.285.765A7.208,7.208,0,0,1,40.35-13.14a8.2,8.2,0,0,1,1.4,2.895A8.874,8.874,0,0,1,41.97-6.87Zm12.45-8.64H45.6v-4.65h3.42v4.65h3.09v2.55H49.02v8.28a8.259,8.259,0,0,0,.045.93,1.605,1.605,0,0,0,.21.66,1,1,0,0,0,.495.4,2.436,2.436,0,0,0,.9.135q.36,0,.72-.015a3.576,3.576,0,0,0,.72-.105V-.03Q51.54.03,51,.09a10.047,10.047,0,0,1-1.11.06,7.571,7.571,0,0,1-2.175-.255,2.9,2.9,0,0,1-1.29-.75,2.588,2.588,0,0,1-.63-1.245A9.369,9.369,0,0,1,45.6-3.81v-9.15H43.02Zm22.2,6.39a5.515,5.515,0,0,0-.345-1.56,4.157,4.157,0,0,0-.78-1.305,3.863,3.863,0,0,0-1.2-.9,3.535,3.535,0,0,0-1.575-.345,4.11,4.11,0,0,0-1.635.315,3.739,3.739,0,0,0-1.26.87,4.3,4.3,0,0,0-.84,1.3,4.553,4.553,0,0,0-.345,1.62ZM57.24-6.87a5.957,5.957,0,0,0,.255,1.74,4.288,4.288,0,0,0,.765,1.47,3.687,3.687,0,0,0,1.29,1.005,4.256,4.256,0,0,0,1.86.375,4.108,4.108,0,0,0,2.415-.645A3.813,3.813,0,0,0,65.19-4.86h3.24a6.449,6.449,0,0,1-.93,2.25A6.471,6.471,0,0,1,65.91-.945,6.863,6.863,0,0,1,63.825.075,8.393,8.393,0,0,1,61.41.42a8.212,8.212,0,0,1-3.24-.6,6.7,6.7,0,0,1-2.385-1.68,7.129,7.129,0,0,1-1.47-2.58,10.481,10.481,0,0,1-.495-3.3,9.336,9.336,0,0,1,.525-3.135,8.025,8.025,0,0,1,1.5-2.61A7.173,7.173,0,0,1,58.2-15.27a7.143,7.143,0,0,1,3.12-.66,6.951,6.951,0,0,1,3.285.765A7.209,7.209,0,0,1,67.02-13.14a8.2,8.2,0,0,1,1.395,2.895A8.874,8.874,0,0,1,68.64-6.87Zm14.01-8.64h3.21v3h.06a3.462,3.462,0,0,1,.585-1.23,5.7,5.7,0,0,1,1.05-1.1,5.306,5.306,0,0,1,1.365-.8,4.086,4.086,0,0,1,1.53-.3,7.42,7.42,0,0,1,.825.03l.465.06v3.3q-.36-.06-.735-.1a6.167,6.167,0,0,0-.735-.045,3.931,3.931,0,0,0-1.635.345,3.755,3.755,0,0,0-1.335,1.02A5,5,0,0,0,75-9.66a7.206,7.206,0,0,0-.33,2.28V0H71.25Z" transform="translate(238 76)" fill="#ffffff"/>
      <path id="Path_5475" data-name="Path 5475" d="M2.22-21.42H7.5L13.41-4.65h.06l5.76-16.77h5.22V0H20.88V-16.53h-.06L14.88,0H11.79L5.85-16.53H5.79V0H2.22ZM41.46-3.45a1.815,1.815,0,0,0,.165.9.7.7,0,0,0,.645.27h.36a2.242,2.242,0,0,0,.48-.06V.03q-.18.06-.465.135T42.06.3q-.3.06-.6.09t-.51.03A3.3,3.3,0,0,1,39.21,0a2.092,2.092,0,0,1-.9-1.47A6.048,6.048,0,0,1,35.805-.03,9.865,9.865,0,0,1,32.94.42,7.026,7.026,0,0,1,30.93.135,5.275,5.275,0,0,1,29.235-.7a4.026,4.026,0,0,1-1.17-1.41A4.344,4.344,0,0,1,27.63-4.11a4.607,4.607,0,0,1,.525-2.34,3.889,3.889,0,0,1,1.38-1.41,6.232,6.232,0,0,1,1.92-.735Q32.52-8.82,33.6-8.94a17.55,17.55,0,0,1,1.77-.255,8.306,8.306,0,0,0,1.485-.255,2.274,2.274,0,0,0,1.02-.555,1.528,1.528,0,0,0,.375-1.125,1.752,1.752,0,0,0-.315-1.08,2.114,2.114,0,0,0-.78-.645,3.369,3.369,0,0,0-1.035-.3,8.294,8.294,0,0,0-1.08-.075,4.3,4.3,0,0,0-2.37.6,2.34,2.34,0,0,0-1.05,1.86H28.2a5.148,5.148,0,0,1,.72-2.49,4.974,4.974,0,0,1,1.6-1.59,6.566,6.566,0,0,1,2.2-.84,13.128,13.128,0,0,1,2.52-.24,10.616,10.616,0,0,1,2.25.24,6.391,6.391,0,0,1,2,.78,4.321,4.321,0,0,1,1.425,1.395,3.828,3.828,0,0,1,.54,2.085ZM38.04-7.77a4.152,4.152,0,0,1-1.92.615q-1.14.1-2.28.315a7.31,7.31,0,0,0-1.05.255,3.162,3.162,0,0,0-.9.45,1.975,1.975,0,0,0-.615.75A2.564,2.564,0,0,0,31.05-4.26a1.435,1.435,0,0,0,.33.96,2.4,2.4,0,0,0,.795.615,3.681,3.681,0,0,0,1.02.315,6.332,6.332,0,0,0,1.005.09,5.57,5.57,0,0,0,1.23-.15,4.091,4.091,0,0,0,1.245-.51,3.278,3.278,0,0,0,.975-.915,2.315,2.315,0,0,0,.39-1.365Zm17.58-2.55a3.208,3.208,0,0,0-1.155-2.175,3.769,3.769,0,0,0-2.385-.735,4.917,4.917,0,0,0-1.41.225,3.346,3.346,0,0,0-1.38.84,4.709,4.709,0,0,0-1.05,1.71,8.141,8.141,0,0,0-.42,2.865,8.389,8.389,0,0,0,.225,1.92,5.249,5.249,0,0,0,.72,1.71A3.9,3.9,0,0,0,50.04-2.745a3.628,3.628,0,0,0,1.89.465A3.441,3.441,0,0,0,54.4-3.21,4.323,4.323,0,0,0,55.62-5.82h3.42a7.513,7.513,0,0,1-2.3,4.635A7,7,0,0,1,51.93.42,7.929,7.929,0,0,1,48.7-.2a6.836,6.836,0,0,1-2.355-1.68A7.134,7.134,0,0,1,44.895-4.41,9.9,9.9,0,0,1,44.4-7.59a10.865,10.865,0,0,1,.48-3.27,7.49,7.49,0,0,1,1.44-2.655,6.738,6.738,0,0,1,2.385-1.77,8.049,8.049,0,0,1,3.345-.645,9.348,9.348,0,0,1,2.565.345,6.756,6.756,0,0,1,2.16,1.035,5.509,5.509,0,0,1,1.545,1.74,5.958,5.958,0,0,1,.72,2.49Zm6.21-5.19h3.21v3h.06a3.462,3.462,0,0,1,.585-1.23,5.7,5.7,0,0,1,1.05-1.1,5.306,5.306,0,0,1,1.365-.8,4.086,4.086,0,0,1,1.53-.3,7.42,7.42,0,0,1,.825.03l.465.06v3.3q-.36-.06-.735-.1a6.167,6.167,0,0,0-.735-.045,3.931,3.931,0,0,0-1.635.345,3.755,3.755,0,0,0-1.335,1.02,5,5,0,0,0-.9,1.665,7.206,7.206,0,0,0-.33,2.28V0H61.83Z" transform="translate(116 76)" fill="#fff"/>
      <g id="Mask_Group_2" data-name="Mask Group 2" transform="translate(235.12 76.13) rotate(180)" clip-path="url(#clip-path)">
        <g id="Path_2" data-name="Path 2" transform="translate(1.481 -22.209)" fill="none">
          <path d="M21.839,0A21.839,21.839,0,1,1,0,21.839,21.839,21.839,0,0,1,21.839,0Z" stroke="none"/>
          <path d="M 21.83892822265625 3 C 16.8068675994873 3 12.07599830627441 4.959587097167969 8.517787933349609 8.517787933349609 C 4.959587097167969 12.07599830627441 3 16.8068675994873 3 21.83892822265625 C 3 26.8709888458252 4.959587097167969 31.60185813903809 8.517787933349609 35.16006851196289 C 12.07599830627441 38.71826934814453 16.8068675994873 40.6778564453125 21.83892822265625 40.6778564453125 C 26.8709888458252 40.6778564453125 31.60185813903809 38.71826934814453 35.16006851196289 35.16006851196289 C 38.71826934814453 31.60185813903809 40.6778564453125 26.8709888458252 40.6778564453125 21.83892822265625 C 40.6778564453125 16.8068675994873 38.71826934814453 12.07599830627441 35.16006851196289 8.517787933349609 C 31.60185813903809 4.959587097167969 26.8709888458252 3 21.83892822265625 3 M 21.83892822265625 0 C 33.90023803710938 0 43.6778564453125 9.777618408203125 43.6778564453125 21.83892822265625 C 43.6778564453125 33.90023803710938 33.90023803710938 43.6778564453125 21.83892822265625 43.6778564453125 C 9.777618408203125 43.6778564453125 0 33.90023803710938 0 21.83892822265625 C 0 9.777618408203125 9.777618408203125 0 21.83892822265625 0 Z" stroke="none" fill="#fff"/>
        </g>
      </g>
      <path id="Path_3" data-name="Path 3" d="M0,12.585,9.515,1.444" transform="translate(211.06 63.915)" fill="none" stroke="#fff" stroke-linecap="round" stroke-width="3"/>
    </g>
    <path id="Path_5478" data-name="Path 5478" d="M1.216-11.424h5.04a4.79,4.79,0,0,1,1.984.352,3.131,3.131,0,0,1,1.184.88A2.988,2.988,0,0,1,9.992-9.04a4.893,4.893,0,0,1,.152,1.152,4.8,4.8,0,0,1-.152,1.144A2.994,2.994,0,0,1,9.424-5.6a3.064,3.064,0,0,1-1.184.872,4.888,4.888,0,0,1-1.984.344H3.216V0h-2Zm2,5.408H6.144a2.609,2.609,0,0,0,.688-.1,1.97,1.97,0,0,0,.648-.312A1.6,1.6,0,0,0,7.96-7a1.977,1.977,0,0,0,.184-.9,2.337,2.337,0,0,0-.16-.928,1.483,1.483,0,0,0-.432-.584,1.537,1.537,0,0,0-.624-.3,3.387,3.387,0,0,0-.752-.08H3.216Zm14.1,1.152a2.941,2.941,0,0,0-.184-.832,2.217,2.217,0,0,0-.416-.7,2.06,2.06,0,0,0-.64-.48,1.885,1.885,0,0,0-.84-.184,2.192,2.192,0,0,0-.872.168,1.994,1.994,0,0,0-.672.464,2.3,2.3,0,0,0-.448.7,2.428,2.428,0,0,0-.184.864Zm-4.256,1.2a3.177,3.177,0,0,0,.136.928,2.287,2.287,0,0,0,.408.784,1.966,1.966,0,0,0,.688.536,2.27,2.27,0,0,0,.992.2,2.191,2.191,0,0,0,1.288-.344A2.034,2.034,0,0,0,17.3-2.592h1.728a3.439,3.439,0,0,1-.5,1.2A3.451,3.451,0,0,1,17.68-.5,3.66,3.66,0,0,1,16.568.04,4.476,4.476,0,0,1,15.28.224,4.38,4.38,0,0,1,13.552-.1a3.572,3.572,0,0,1-1.272-.9A3.8,3.8,0,0,1,11.5-2.368a5.59,5.59,0,0,1-.264-1.76,4.979,4.979,0,0,1,.28-1.672,4.28,4.28,0,0,1,.8-1.392,3.826,3.826,0,0,1,1.256-.952A3.809,3.809,0,0,1,15.232-8.5a3.707,3.707,0,0,1,1.752.408,3.844,3.844,0,0,1,1.288,1.08,4.373,4.373,0,0,1,.744,1.544,4.733,4.733,0,0,1,.12,1.8Zm7.472-4.608H22.24v1.6h.032a1.846,1.846,0,0,1,.312-.656,3.042,3.042,0,0,1,.56-.584,2.83,2.83,0,0,1,.728-.424,2.179,2.179,0,0,1,.816-.16,3.957,3.957,0,0,1,.44.016l.248.032v1.76q-.192-.032-.392-.056a3.289,3.289,0,0,0-.392-.024,2.1,2.1,0,0,0-.872.184,2,2,0,0,0-.712.544,2.666,2.666,0,0,0-.48.888,3.843,3.843,0,0,0-.176,1.216V0H20.528Zm7.008,5.616a1.374,1.374,0,0,0,.608,1.12,2.393,2.393,0,0,0,1.264.32,4.881,4.881,0,0,0,.584-.04,2.542,2.542,0,0,0,.616-.152,1.159,1.159,0,0,0,.472-.328.788.788,0,0,0,.168-.568.806.806,0,0,0-.256-.576,1.774,1.774,0,0,0-.616-.36,5.969,5.969,0,0,0-.856-.232q-.48-.1-.976-.208a9.161,9.161,0,0,1-.984-.272,3.176,3.176,0,0,1-.848-.432,2,2,0,0,1-.6-.7,2.224,2.224,0,0,1-.224-1.048,1.881,1.881,0,0,1,.328-1.128,2.514,2.514,0,0,1,.832-.736,3.623,3.623,0,0,1,1.12-.392A6.579,6.579,0,0,1,29.344-8.5a5.381,5.381,0,0,1,1.224.136,3.326,3.326,0,0,1,1.056.44,2.584,2.584,0,0,1,.784.792A2.741,2.741,0,0,1,32.8-5.952H30.9a1.135,1.135,0,0,0-.6-.88,2.49,2.49,0,0,0-1.08-.224,3.865,3.865,0,0,0-.456.032,2.109,2.109,0,0,0-.5.12,1.044,1.044,0,0,0-.392.256.612.612,0,0,0-.16.44.7.7,0,0,0,.232.544,1.836,1.836,0,0,0,.608.344,5.969,5.969,0,0,0,.856.232q.48.1.992.208.5.112.976.272a3.147,3.147,0,0,1,.856.432,2.1,2.1,0,0,1,.608.688,2.077,2.077,0,0,1,.232,1.024,2.225,2.225,0,0,1-.336,1.248,2.657,2.657,0,0,1-.872.832A3.966,3.966,0,0,1,30.672.08a6.031,6.031,0,0,1-1.3.144A5.64,5.64,0,0,1,27.928.048a3.375,3.375,0,0,1-1.152-.536,2.59,2.59,0,0,1-.768-.9,2.85,2.85,0,0,1-.3-1.272ZM38.256.224A4.5,4.5,0,0,1,36.488-.1a3.77,3.77,0,0,1-1.312-.9,3.866,3.866,0,0,1-.816-1.376,5.3,5.3,0,0,1-.28-1.76,5.246,5.246,0,0,1,.28-1.744,3.866,3.866,0,0,1,.816-1.376,3.77,3.77,0,0,1,1.312-.9A4.5,4.5,0,0,1,38.256-8.5a4.5,4.5,0,0,1,1.768.328,3.77,3.77,0,0,1,1.312.9,3.866,3.866,0,0,1,.816,1.376,5.246,5.246,0,0,1,.28,1.744,5.3,5.3,0,0,1-.28,1.76,3.866,3.866,0,0,1-.816,1.376,3.77,3.77,0,0,1-1.312.9A4.5,4.5,0,0,1,38.256.224Zm0-1.44a2.093,2.093,0,0,0,1.056-.256,2.225,2.225,0,0,0,.736-.672,2.933,2.933,0,0,0,.424-.936,4.188,4.188,0,0,0,.136-1.064A4.219,4.219,0,0,0,40.472-5.2a2.831,2.831,0,0,0-.424-.936,2.26,2.26,0,0,0-.736-.664,2.093,2.093,0,0,0-1.056-.256A2.093,2.093,0,0,0,37.2-6.8a2.26,2.26,0,0,0-.736.664,2.831,2.831,0,0,0-.424.936A4.219,4.219,0,0,0,35.9-4.144,4.188,4.188,0,0,0,36.04-3.08a2.933,2.933,0,0,0,.424.936,2.225,2.225,0,0,0,.736.672A2.093,2.093,0,0,0,38.256-1.216Zm5.7-7.056H45.68v1.216l.032.032A3.058,3.058,0,0,1,46.8-8.1,2.9,2.9,0,0,1,48.288-8.5a3.092,3.092,0,0,1,2.144.7,2.7,2.7,0,0,1,.784,2.112V0H49.392V-5.2a2.247,2.247,0,0,0-.416-1.416,1.511,1.511,0,0,0-1.2-.44,1.982,1.982,0,0,0-.832.168,1.8,1.8,0,0,0-.624.464,2.181,2.181,0,0,0-.4.7,2.484,2.484,0,0,0-.144.848V0H43.952ZM60.064-1.84a.968.968,0,0,0,.088.48.371.371,0,0,0,.344.144h.192a1.2,1.2,0,0,0,.256-.032V.016q-.1.032-.248.072T60.384.16q-.16.032-.32.048t-.272.016A1.759,1.759,0,0,1,58.864,0a1.115,1.115,0,0,1-.48-.784,3.226,3.226,0,0,1-1.336.768,5.261,5.261,0,0,1-1.528.24A3.747,3.747,0,0,1,54.448.072a2.813,2.813,0,0,1-.9-.448,2.147,2.147,0,0,1-.624-.752,2.317,2.317,0,0,1-.232-1.064,2.457,2.457,0,0,1,.28-1.248,2.074,2.074,0,0,1,.736-.752,3.324,3.324,0,0,1,1.024-.392q.568-.12,1.144-.184a9.36,9.36,0,0,1,.944-.136,4.43,4.43,0,0,0,.792-.136,1.213,1.213,0,0,0,.544-.3.815.815,0,0,0,.2-.6.934.934,0,0,0-.168-.576,1.127,1.127,0,0,0-.416-.344,1.8,1.8,0,0,0-.552-.16,4.424,4.424,0,0,0-.576-.04,2.291,2.291,0,0,0-1.264.32,1.248,1.248,0,0,0-.56.992H52.992a2.746,2.746,0,0,1,.384-1.328,2.653,2.653,0,0,1,.856-.848,3.5,3.5,0,0,1,1.176-.448A7,7,0,0,1,56.752-8.5a5.662,5.662,0,0,1,1.2.128,3.409,3.409,0,0,1,1.064.416,2.3,2.3,0,0,1,.76.744A2.041,2.041,0,0,1,60.064-6.1Zm-1.824-2.3a2.214,2.214,0,0,1-1.024.328q-.608.056-1.216.168a3.9,3.9,0,0,0-.56.136,1.687,1.687,0,0,0-.48.24,1.054,1.054,0,0,0-.328.4,1.368,1.368,0,0,0-.12.6.766.766,0,0,0,.176.512,1.278,1.278,0,0,0,.424.328,1.963,1.963,0,0,0,.544.168,3.377,3.377,0,0,0,.536.048,2.971,2.971,0,0,0,.656-.08,2.182,2.182,0,0,0,.664-.272,1.748,1.748,0,0,0,.52-.488,1.234,1.234,0,0,0,.208-.728Zm3.84-7.28H63.9V0H62.08Zm8.432,0h2.112L77.84-3.008h.032v-8.416h1.9V0H77.664l-5.2-8.4h-.048V0h-1.9ZM89.152,0H87.36V-1.152h-.032a2.505,2.505,0,0,1-1,1,2.715,2.715,0,0,1-1.352.376,3.037,3.037,0,0,1-2.36-.808,3.548,3.548,0,0,1-.728-2.44V-8.272h1.824V-3.2a2.244,2.244,0,0,0,.416,1.536,1.515,1.515,0,0,0,1.168.448,2.3,2.3,0,0,0,.96-.176,1.7,1.7,0,0,0,.624-.472,1.81,1.81,0,0,0,.344-.712,3.686,3.686,0,0,0,.1-.9v-4.8h1.824ZM90.24-8.272h1.376v-2.48H93.44v2.48h1.648v1.36H93.44V-2.5a4.405,4.405,0,0,0,.024.5.856.856,0,0,0,.112.352.535.535,0,0,0,.264.216,1.3,1.3,0,0,0,.48.072q.192,0,.384-.008a1.907,1.907,0,0,0,.384-.056V-.016L94.5.048A5.359,5.359,0,0,1,93.9.08a4.038,4.038,0,0,1-1.16-.136,1.549,1.549,0,0,1-.688-.4,1.38,1.38,0,0,1-.336-.664,5,5,0,0,1-.1-.912v-4.88H90.24Zm6.16,0h1.712v1.6h.032a1.846,1.846,0,0,1,.312-.656,3.042,3.042,0,0,1,.56-.584,2.83,2.83,0,0,1,.728-.424,2.179,2.179,0,0,1,.816-.16,3.957,3.957,0,0,1,.44.016l.248.032v1.76q-.192-.032-.392-.056a3.289,3.289,0,0,0-.392-.024,2.1,2.1,0,0,0-.872.184,2,2,0,0,0-.712.544,2.666,2.666,0,0,0-.48.888,3.843,3.843,0,0,0-.176,1.216V0H96.4Zm5.68-3.152H103.9V-9.7H102.08Zm0,3.152H103.9V0H102.08Zm2.976,0h1.376v-2.48h1.824v2.48H109.9v1.36h-1.648V-2.5a4.405,4.405,0,0,0,.024.5.856.856,0,0,0,.112.352.535.535,0,0,0,.264.216,1.3,1.3,0,0,0,.48.072q.192,0,.384-.008a1.907,1.907,0,0,0,.384-.056V-.016l-.592.064a5.359,5.359,0,0,1-.592.032,4.038,4.038,0,0,1-1.16-.136,1.549,1.549,0,0,1-.688-.4,1.38,1.38,0,0,1-.336-.664,5,5,0,0,1-.1-.912v-4.88h-1.376Zm6.208-3.152h1.824V-9.7h-1.824Zm0,3.152h1.824V0h-1.824Zm7.6,8.5A4.5,4.5,0,0,1,117.1-.1a3.77,3.77,0,0,1-1.312-.9,3.866,3.866,0,0,1-.816-1.376,5.3,5.3,0,0,1-.28-1.76,5.246,5.246,0,0,1,.28-1.744,3.866,3.866,0,0,1,.816-1.376,3.77,3.77,0,0,1,1.312-.9,4.5,4.5,0,0,1,1.768-.328,4.5,4.5,0,0,1,1.768.328,3.77,3.77,0,0,1,1.312.9,3.866,3.866,0,0,1,.816,1.376,5.246,5.246,0,0,1,.28,1.744,5.3,5.3,0,0,1-.28,1.76,3.866,3.866,0,0,1-.816,1.376,3.77,3.77,0,0,1-1.312.9A4.5,4.5,0,0,1,118.864.224Zm0-1.44a2.093,2.093,0,0,0,1.056-.256,2.225,2.225,0,0,0,.736-.672,2.933,2.933,0,0,0,.424-.936,4.188,4.188,0,0,0,.136-1.064A4.219,4.219,0,0,0,121.08-5.2a2.831,2.831,0,0,0-.424-.936,2.26,2.26,0,0,0-.736-.664,2.093,2.093,0,0,0-1.056-.256,2.093,2.093,0,0,0-1.056.256,2.26,2.26,0,0,0-.736.664,2.83,2.83,0,0,0-.424.936,4.219,4.219,0,0,0-.136,1.056,4.188,4.188,0,0,0,.136,1.064,2.933,2.933,0,0,0,.424.936,2.225,2.225,0,0,0,.736.672A2.093,2.093,0,0,0,118.864-1.216Zm5.7-7.056h1.728v1.216l.032.032a3.058,3.058,0,0,1,1.088-1.08A2.9,2.9,0,0,1,128.9-8.5a3.092,3.092,0,0,1,2.144.7,2.7,2.7,0,0,1,.784,2.112V0H130V-5.2a2.247,2.247,0,0,0-.416-1.416,1.511,1.511,0,0,0-1.2-.44,1.982,1.982,0,0,0-.832.168,1.8,1.8,0,0,0-.624.464,2.181,2.181,0,0,0-.4.7,2.484,2.484,0,0,0-.144.848V0H124.56Zm21.6.48a4.049,4.049,0,0,0-.352-.912,2.523,2.523,0,0,0-.576-.72,2.559,2.559,0,0,0-.824-.472,3.264,3.264,0,0,0-1.1-.168,3.2,3.2,0,0,0-1.576.368,3.09,3.09,0,0,0-1.08.984,4.439,4.439,0,0,0-.616,1.4,6.448,6.448,0,0,0-.2,1.6,6.448,6.448,0,0,0,.2,1.6,4.439,4.439,0,0,0,.616,1.4,3.09,3.09,0,0,0,1.08.984,3.2,3.2,0,0,0,1.576.368,2.843,2.843,0,0,0,1.184-.232,2.636,2.636,0,0,0,.88-.64,3.012,3.012,0,0,0,.576-.952,4.559,4.559,0,0,0,.272-1.168h1.952a5.414,5.414,0,0,1-.44,1.872,4.59,4.59,0,0,1-1.016,1.464,4.489,4.489,0,0,1-1.5.952,5.211,5.211,0,0,1-1.9.336,5.387,5.387,0,0,1-2.3-.472,5.051,5.051,0,0,1-1.72-1.288,5.762,5.762,0,0,1-1.08-1.9,7.054,7.054,0,0,1-.376-2.32,7,7,0,0,1,.376-2.3,5.762,5.762,0,0,1,1.08-1.9,5.141,5.141,0,0,1,1.72-1.3,5.311,5.311,0,0,1,2.3-.48,6.05,6.05,0,0,1,1.808.264,4.674,4.674,0,0,1,1.5.768,3.989,3.989,0,0,1,1.048,1.224,4.258,4.258,0,0,1,.5,1.648ZM153.536.224A4.5,4.5,0,0,1,151.768-.1a3.77,3.77,0,0,1-1.312-.9,3.866,3.866,0,0,1-.816-1.376,5.3,5.3,0,0,1-.28-1.76,5.246,5.246,0,0,1,.28-1.744,3.866,3.866,0,0,1,.816-1.376,3.77,3.77,0,0,1,1.312-.9,4.5,4.5,0,0,1,1.768-.328,4.5,4.5,0,0,1,1.768.328,3.77,3.77,0,0,1,1.312.9,3.866,3.866,0,0,1,.816,1.376,5.246,5.246,0,0,1,.28,1.744,5.3,5.3,0,0,1-.28,1.76,3.866,3.866,0,0,1-.816,1.376,3.77,3.77,0,0,1-1.312.9A4.5,4.5,0,0,1,153.536.224Zm0-1.44a2.093,2.093,0,0,0,1.056-.256,2.225,2.225,0,0,0,.736-.672,2.933,2.933,0,0,0,.424-.936,4.188,4.188,0,0,0,.136-1.064,4.219,4.219,0,0,0-.136-1.056,2.831,2.831,0,0,0-.424-.936,2.26,2.26,0,0,0-.736-.664,2.093,2.093,0,0,0-1.056-.256,2.093,2.093,0,0,0-1.056.256,2.26,2.26,0,0,0-.736.664,2.831,2.831,0,0,0-.424.936,4.219,4.219,0,0,0-.136,1.056,4.188,4.188,0,0,0,.136,1.064,2.933,2.933,0,0,0,.424.936,2.225,2.225,0,0,0,.736.672A2.093,2.093,0,0,0,153.536-1.216ZM166.16-1.84a.968.968,0,0,0,.088.48.371.371,0,0,0,.344.144h.192a1.2,1.2,0,0,0,.256-.032V.016q-.1.032-.248.072T166.48.16q-.16.032-.32.048t-.272.016A1.759,1.759,0,0,1,164.96,0a1.115,1.115,0,0,1-.48-.784,3.226,3.226,0,0,1-1.336.768,5.261,5.261,0,0,1-1.528.24,3.747,3.747,0,0,1-1.072-.152,2.813,2.813,0,0,1-.9-.448,2.147,2.147,0,0,1-.624-.752,2.317,2.317,0,0,1-.232-1.064,2.457,2.457,0,0,1,.28-1.248,2.074,2.074,0,0,1,.736-.752,3.324,3.324,0,0,1,1.024-.392q.568-.12,1.144-.184a9.36,9.36,0,0,1,.944-.136,4.43,4.43,0,0,0,.792-.136,1.213,1.213,0,0,0,.544-.3.815.815,0,0,0,.2-.6.934.934,0,0,0-.168-.576,1.127,1.127,0,0,0-.416-.344,1.8,1.8,0,0,0-.552-.16,4.424,4.424,0,0,0-.576-.04,2.291,2.291,0,0,0-1.264.32,1.248,1.248,0,0,0-.56.992h-1.824a2.746,2.746,0,0,1,.384-1.328,2.653,2.653,0,0,1,.856-.848,3.5,3.5,0,0,1,1.176-.448,7,7,0,0,1,1.344-.128,5.662,5.662,0,0,1,1.2.128,3.409,3.409,0,0,1,1.064.416,2.3,2.3,0,0,1,.76.744A2.041,2.041,0,0,1,166.16-6.1Zm-1.824-2.3a2.214,2.214,0,0,1-1.024.328q-.608.056-1.216.168a3.9,3.9,0,0,0-.56.136,1.687,1.687,0,0,0-.48.24,1.054,1.054,0,0,0-.328.4,1.368,1.368,0,0,0-.12.6.766.766,0,0,0,.176.512,1.278,1.278,0,0,0,.424.328,1.963,1.963,0,0,0,.544.168,3.377,3.377,0,0,0,.536.048,2.97,2.97,0,0,0,.656-.08,2.182,2.182,0,0,0,.664-.272,1.748,1.748,0,0,0,.52-.488,1.235,1.235,0,0,0,.208-.728Zm9.376-1.36a1.711,1.711,0,0,0-.616-1.16,2.01,2.01,0,0,0-1.272-.392,2.623,2.623,0,0,0-.752.12,1.784,1.784,0,0,0-.736.448,2.512,2.512,0,0,0-.56.912,4.342,4.342,0,0,0-.224,1.528,4.474,4.474,0,0,0,.12,1.024,2.8,2.8,0,0,0,.384.912,2.08,2.08,0,0,0,.68.648,1.935,1.935,0,0,0,1.008.248,1.835,1.835,0,0,0,1.32-.5,2.306,2.306,0,0,0,.648-1.392h1.824a4.007,4.007,0,0,1-1.224,2.472,3.735,3.735,0,0,1-2.568.856,4.229,4.229,0,0,1-1.72-.328,3.646,3.646,0,0,1-1.256-.9,3.8,3.8,0,0,1-.776-1.352,5.282,5.282,0,0,1-.264-1.7,5.8,5.8,0,0,1,.256-1.744,4,4,0,0,1,.768-1.416,3.594,3.594,0,0,1,1.272-.944,4.293,4.293,0,0,1,1.784-.344,4.985,4.985,0,0,1,1.368.184,3.6,3.6,0,0,1,1.152.552,2.938,2.938,0,0,1,.824.928,3.177,3.177,0,0,1,.384,1.328Zm3.312-5.92h1.824v4.24h.032a2.657,2.657,0,0,1,1-.936,2.951,2.951,0,0,1,1.48-.376,3.092,3.092,0,0,1,2.144.7,2.7,2.7,0,0,1,.784,2.112V0h-1.824V-5.2a2.247,2.247,0,0,0-.416-1.416,1.511,1.511,0,0,0-1.2-.44,1.982,1.982,0,0,0-.832.168,1.8,1.8,0,0,0-.624.464,2.181,2.181,0,0,0-.4.7,2.485,2.485,0,0,0-.144.848V0h-1.824Z" transform="translate(108 110)" fill="#ffffff" opacity="0.601"/>
  </g>
</svg>
