<svg xmlns="http://www.w3.org/2000/svg" width="102.9" height="114.357" viewBox="0 0 102.9 114.357">
  <path id="Path_5499" data-name="Path 5499" d="M87.7,16.123a2.656,2.656,0,0,1-1.315-.343C75.4,10.119,65.911,7.718,54.533,7.718A65.416,65.416,0,0,0,22.684,15.78a2.866,2.866,0,1,1-2.745-5.032A71.8,71.8,0,0,1,54.533,2c12.179,0,22.814,2.687,34.479,8.691A2.894,2.894,0,0,1,87.7,16.123ZM5.874,46.142a2.979,2.979,0,0,1-1.658-.515,2.851,2.851,0,0,1-.686-4,59.116,59.116,0,0,1,21.442-18.7,66,66,0,0,1,58.951-.057,59.342,59.342,0,0,1,21.442,18.583,2.871,2.871,0,0,1-4.689,3.316,53.678,53.678,0,0,0-19.384-16.81,60.251,60.251,0,0,0-53.748.057A54.243,54.243,0,0,0,8.1,44.941a2.493,2.493,0,0,1-2.23,1.2ZM41.61,115.156a2.682,2.682,0,0,1-2-.858A57.8,57.8,0,0,1,28.116,99.2a50.757,50.757,0,0,1-6-24.815c0-16.982,14.523-30.819,32.363-30.819S86.839,57.406,86.839,74.388a2.859,2.859,0,1,1-5.718,0c0-13.837-11.95-25.1-26.645-25.1S27.83,60.551,27.83,74.388A44.794,44.794,0,0,0,33.148,96.4a54.122,54.122,0,0,0,10.578,13.837,2.936,2.936,0,0,1,0,4.06,3.136,3.136,0,0,1-2.116.858Zm41-10.578a30.792,30.792,0,0,1-17.725-5.089,30.444,30.444,0,0,1-13.608-25.1,2.859,2.859,0,0,1,5.718,0A24.593,24.593,0,0,0,68.084,94.744,25.071,25.071,0,0,0,82.607,98.8a37.787,37.787,0,0,0,5.947-.572,2.872,2.872,0,1,1,.972,5.661,39.046,39.046,0,0,1-6.919.686ZM71.115,116.357a3.347,3.347,0,0,1-.743-.114c-9.091-2.516-15.038-5.889-21.27-12.007A41.721,41.721,0,0,1,36.693,74.388c0-9.263,7.891-16.81,17.611-16.81s17.611,7.548,17.611,16.81c0,6.118,5.318,11.093,11.893,11.093S95.7,80.506,95.7,74.388c0-21.556-18.583-39.053-41.454-39.053-16.239,0-31.105,9.034-37.8,23.043a36.783,36.783,0,0,0-3.374,16.01,56.821,56.821,0,0,0,3.831,20.641,2.791,2.791,0,0,1-1.658,3.659,2.836,2.836,0,0,1-3.659-1.658A63.7,63.7,0,0,1,7.418,74.388a42.957,42.957,0,0,1,3.888-18.526c7.6-15.953,24.472-26.3,42.941-26.3,26.016,0,47.172,20.07,47.172,44.771,0,9.263-7.891,16.81-17.611,16.81S66.2,83.594,66.2,74.331c0-6.118-5.318-11.093-11.893-11.093S42.411,68.213,42.411,74.331A36.008,36.008,0,0,0,53.1,100.118c5.432,5.375,10.635,8.348,18.7,10.578a2.838,2.838,0,0,1,2,3.488,2.79,2.79,0,0,1-2.687,2.173Z" transform="translate(-2.997 -2)" fill="#488dfb"/>
</svg>
